<?xml version="1.0" encoding="UTF-8"?>
<svg id="wordmark_outlined" data-name="wordmark outlined" xmlns="http://www.w3.org/2000/svg" viewBox="0 0 412.9 86.31">
  <path d="M15.22,62.86c-2.48,0-4.7-.42-6.64-1.27-1.95-.84-3.48-2.11-4.59-3.8-1.11-1.69-1.67-3.78-1.67-6.29,0-2.16.39-3.95,1.18-5.38.79-1.43,1.86-2.58,3.23-3.45,1.37-.87,2.94-1.53,4.69-1.99s3.6-.78,5.52-.97c2.27-.21,4.09-.42,5.45-.63,1.36-.21,2.35-.52,2.97-.93.62-.41.93-1.02.93-1.85v-.21c0-1.01-.24-1.88-.72-2.6-.48-.73-1.18-1.29-2.09-1.71-.91-.41-2.02-.62-3.3-.62s-2.46.21-3.45.62c-.98.41-1.78.97-2.37,1.67s-.99,1.51-1.18,2.43l-9.7-.7c.37-2.44,1.29-4.54,2.74-6.29,1.45-1.76,3.38-3.11,5.77-4.04,2.39-.94,5.18-1.41,8.37-1.41,2.34,0,4.51.27,6.5.81,1.99.54,3.72,1.35,5.19,2.44,1.46,1.09,2.6,2.44,3.41,4.06s1.21,3.52,1.21,5.7v25.73h-10.09v-5.34h-.21c-.66,1.22-1.49,2.28-2.5,3.18-1.01.9-2.22,1.6-3.64,2.09-1.42.49-3.09.74-5.01.74ZM18.14,55.58c1.66,0,3.11-.32,4.34-.95s2.19-1.49,2.87-2.57c.68-1.08,1.02-2.3,1.02-3.66v-3.97c-.3.19-.74.36-1.3.53-.56.16-1.2.32-1.9.47-.7.15-1.44.29-2.2.4-.76.12-1.51.23-2.23.35-1.22.16-2.31.45-3.29.84-.97.4-1.74.94-2.3,1.62-.56.68-.84,1.52-.84,2.53,0,.94.25,1.73.74,2.39.49.66,1.18,1.15,2.06,1.49.88.34,1.89.51,3.04.51Z"/>
  <path d="M62.19,77.52c-3.4,0-6.32-.46-8.75-1.37-2.44-.91-4.38-2.2-5.84-3.85-1.45-1.65-2.41-3.56-2.88-5.71l9.6-1.12c.28.84.76,1.6,1.44,2.27.68.67,1.55,1.2,2.62,1.58,1.07.39,2.34.58,3.81.58,2.6,0,4.62-.66,6.06-1.99,1.44-1.32,2.16-3.3,2.16-5.92v-6.36h-.39c-.61,1.27-1.41,2.37-2.41,3.32-1,.95-2.2,1.69-3.62,2.21-1.42.53-3.05.79-4.9.79-3.09,0-5.85-.76-8.26-2.27-2.41-1.51-4.31-3.69-5.7-6.52-1.38-2.84-2.07-6.23-2.07-10.2s.7-7.51,2.11-10.42,3.32-5.16,5.73-6.73c2.41-1.57,5.13-2.36,8.16-2.36,1.9,0,3.56.29,4.97.88,1.42.59,2.64,1.38,3.67,2.37,1.03,1,1.88,2.1,2.53,3.32h.21v-5.94h10.3v37.16c0,3.75-.79,6.83-2.36,9.23-1.57,2.4-3.75,4.18-6.54,5.33-2.79,1.15-6.01,1.72-9.67,1.72ZM62.05,53.79c1.78,0,3.32-.44,4.61-1.32,1.29-.88,2.28-2.14,2.97-3.78.69-1.64,1.04-3.59,1.04-5.84s-.35-4.2-1.04-5.85c-.69-1.65-1.68-2.94-2.97-3.85-1.29-.91-2.82-1.37-4.61-1.37s-3.23.45-4.48,1.35c-1.25.9-2.21,2.18-2.88,3.83s-1,3.62-1,5.89.33,4.23,1,5.87c.67,1.64,1.63,2.9,2.88,3.76,1.25.87,2.75,1.3,4.48,1.3Z"/>
  <path d="M106.14,63c-3.87,0-7.22-.83-10.05-2.48-2.84-1.65-5.03-3.96-6.57-6.93-1.55-2.96-2.32-6.42-2.32-10.35s.78-7.32,2.34-10.3c1.56-2.98,3.73-5.31,6.5-7s6.01-2.53,9.69-2.53c2.65,0,5.09.44,7.33,1.32,2.24.88,4.18,2.16,5.82,3.85,1.64,1.69,2.92,3.74,3.83,6.15.91,2.41,1.37,5.16,1.37,8.23v2.85h-32.91v-6.61h27.84l-4.78,1.65c0-1.95-.33-3.63-.98-5.06-.66-1.43-1.61-2.53-2.85-3.3-1.24-.77-2.75-1.16-4.54-1.16s-3.26.39-4.52,1.18c-1.25.79-2.22,1.88-2.9,3.27-.68,1.39-1.02,3.02-1.02,4.87v4.61c0,2.06.36,3.84,1.09,5.33.73,1.49,1.76,2.62,3.11,3.41,1.35.79,2.94,1.18,4.76,1.18,1.31,0,2.48-.19,3.52-.56,1.03-.37,1.9-.91,2.62-1.62.71-.7,1.24-1.53,1.56-2.5l9.49.77c-.54,2.32-1.61,4.37-3.22,6.13-1.61,1.77-3.62,3.15-6.05,4.13s-5.15,1.48-8.17,1.48Z"/>
  <path d="M140.8,40.61v21.59h-10.44V24.08h10.09l.07,9.74h-1.27c1.1-3.28,2.72-5.83,4.87-7.65,2.14-1.82,4.89-2.72,8.24-2.72,2.67,0,5,.58,7,1.74,1.99,1.16,3.53,2.84,4.62,5.03,1.09,2.19,1.63,4.85,1.63,7.96v24.01h-10.44v-22.15c0-2.46-.61-4.36-1.83-5.7-1.22-1.34-2.93-2-5.13-2-1.45,0-2.74.3-3.85.91-1.11.61-1.99,1.53-2.62,2.76s-.95,2.76-.95,4.59Z"/>
  <path d="M190.97,63c-3.82,0-7.15-.83-9.98-2.5-2.84-1.66-5.03-3.98-6.59-6.94-1.56-2.96-2.34-6.4-2.34-10.32s.78-7.39,2.34-10.37c1.56-2.98,3.76-5.3,6.59-6.96,2.84-1.66,6.16-2.5,9.98-2.5,2.39,0,4.59.33,6.61,1,2.02.67,3.78,1.62,5.31,2.85,1.52,1.23,2.76,2.7,3.71,4.41.95,1.71,1.55,3.62,1.81,5.73l-9.91.81c-.19-.98-.48-1.87-.88-2.65-.4-.79-.91-1.46-1.55-2.04-.63-.57-1.37-1.01-2.2-1.32-.83-.3-1.76-.46-2.79-.46-1.78,0-3.3.47-4.57,1.42s-2.23,2.29-2.88,4.01c-.66,1.72-.98,3.73-.98,6.03s.33,4.3.98,6.01c.66,1.71,1.62,3.05,2.88,4.01,1.27.96,2.79,1.44,4.57,1.44,1.03,0,1.96-.15,2.79-.46.83-.3,1.56-.74,2.18-1.32.62-.57,1.14-1.27,1.55-2.09.41-.82.71-1.73.9-2.74l9.95.77c-.23,2.13-.82,4.06-1.76,5.78-.94,1.72-2.17,3.21-3.71,4.46-1.54,1.25-3.32,2.22-5.34,2.9-2.03.68-4.25,1.02-6.66,1.02Z"/>
  <path d="M213.86,76.54l1.05-8.09,3.2.14c1.1.16,2.04.14,2.81-.07s1.41-.64,1.92-1.28c.5-.65.87-1.52,1.11-2.62l.7-2.46-14.52-38.07h11.04l6.36,19.27c.77,2.37,1.45,4.73,2.04,7.08.59,2.36,1.2,4.76,1.83,7.22h-2.71c.61-2.46,1.24-4.87,1.88-7.24.64-2.37,1.35-4.72,2.13-7.07l6.54-19.27h10.9l-16.52,43.35c-.77,2.09-1.74,3.84-2.9,5.27-1.16,1.43-2.56,2.51-4.2,3.23-1.64.73-3.57,1.09-5.8,1.09-1.24,0-2.46-.05-3.66-.14-1.2-.09-2.26-.21-3.2-.35Z"/>
  <path d="M268.49,62.96c-2.62,0-4.96-.42-7-1.27s-3.7-2.09-4.97-3.74c-1.28-1.65-2.06-3.69-2.34-6.1l4.5-.49c.37,2.44,1.39,4.3,3.06,5.59,1.66,1.29,3.89,1.93,6.68,1.93,2.93,0,5.26-.66,7-1.97,1.73-1.31,2.6-2.96,2.6-4.96,0-1.59-.55-2.87-1.65-3.83-1.1-.96-2.68-1.68-4.75-2.14l-6.26-1.51c-3.35-.8-5.88-2.03-7.59-3.71-1.71-1.68-2.57-3.83-2.57-6.45,0-2.13.57-4.01,1.72-5.64,1.15-1.63,2.74-2.91,4.76-3.83,2.03-.93,4.35-1.39,6.98-1.39s4.71.43,6.59,1.3c1.89.87,3.41,2.1,4.57,3.69,1.16,1.59,1.9,3.5,2.23,5.73l-4.39.49c-.35-2.13-1.28-3.86-2.78-5.19-1.5-1.32-3.57-1.99-6.22-1.99s-4.75.63-6.38,1.88c-1.63,1.25-2.44,2.87-2.44,4.83,0,1.62.58,2.92,1.74,3.9s2.85,1.75,5.08,2.29l6.08,1.44c3.38.8,5.88,2,7.52,3.62,1.64,1.62,2.46,3.73,2.46,6.33,0,2.25-.6,4.21-1.81,5.89-1.21,1.68-2.88,2.98-5.03,3.9s-4.61,1.39-7.4,1.39Z"/>
  <path d="M307.1,24.08v4.04h-18.63v-4.04h18.63ZM294.58,14.31h4.64v39.13c0,1.73.38,2.99,1.14,3.76.76.77,2,1.12,3.71,1.05.42,0,.9-.02,1.44-.05.54-.04,1.03-.08,1.48-.12l.46,4.04c-.54.07-1.12.13-1.76.18-.63.05-1.24.07-1.83.07-3,.09-5.3-.61-6.89-2.11-1.59-1.5-2.39-3.66-2.39-6.47V14.31Z"/>
  <path d="M327.35,62.89c-2.37,0-4.52-.43-6.47-1.28-1.95-.86-3.5-2.13-4.66-3.83-1.16-1.7-1.74-3.78-1.74-6.24,0-1.95.37-3.56,1.11-4.85.74-1.29,1.78-2.34,3.11-3.16,1.34-.82,2.92-1.46,4.76-1.93,1.84-.47,3.86-.84,6.06-1.12,2.25-.3,4.12-.56,5.61-.77,1.49-.21,2.6-.54,3.34-.98.74-.44,1.11-1.16,1.11-2.14v-.7c0-1.64-.38-3.08-1.12-4.31-.75-1.23-1.82-2.19-3.22-2.88-1.39-.69-3.05-1.04-4.97-1.04s-3.54.32-4.99.95c-1.45.63-2.63,1.48-3.53,2.55-.9,1.07-1.48,2.24-1.74,3.53l-4.57-.7c.44-2.18,1.37-4.05,2.76-5.61,1.39-1.56,3.13-2.75,5.22-3.59,2.09-.83,4.35-1.25,6.79-1.25,1.85,0,3.62.25,5.29.76,1.68.5,3.16,1.27,4.46,2.3,1.3,1.03,2.33,2.33,3.09,3.9.76,1.57,1.14,3.42,1.14,5.55v26.16h-4.57v-6.12h-.21c-.56,1.15-1.37,2.25-2.43,3.3s-2.38,1.9-3.97,2.55c-1.59.64-3.48.97-5.66.97ZM327.99,58.71c2.44,0,4.52-.49,6.24-1.48s3.05-2.33,3.97-4.04c.93-1.71,1.39-3.63,1.39-5.77v-5.38c-.33.3-.84.58-1.55.83s-1.53.46-2.48.65c-.95.19-1.96.36-3.02.53-1.07.16-2.1.3-3.11.42-2.13.28-3.97.7-5.5,1.27-1.54.56-2.71,1.32-3.53,2.29-.82.96-1.23,2.2-1.23,3.73s.38,2.74,1.14,3.78c.76,1.04,1.8,1.83,3.13,2.37,1.32.54,2.84.81,4.55.81Z"/>
  <path d="M370.29,24.08v4.04h-18.63v-4.04h18.63ZM357.77,14.31h4.64v39.13c0,1.73.38,2.99,1.14,3.76.76.77,2,1.12,3.71,1.05.42,0,.9-.02,1.44-.05.54-.04,1.03-.08,1.48-.12l.46,4.04c-.54.07-1.12.13-1.76.18-.63.05-1.24.07-1.83.07-3,.09-5.3-.61-6.89-2.11-1.59-1.5-2.39-3.66-2.39-6.47V14.31Z"/>
  <path d="M393.78,63c-3.59,0-6.68-.85-9.28-2.55-2.6-1.7-4.61-4.03-6.01-7-1.41-2.96-2.11-6.36-2.11-10.18s.71-7.25,2.14-10.23c1.43-2.98,3.42-5.32,5.96-7.03,2.54-1.71,5.48-2.57,8.81-2.57,2.34,0,4.53.43,6.56,1.3,2.03.87,3.8,2.13,5.31,3.8,1.51,1.66,2.69,3.69,3.53,6.06.84,2.38,1.27,5.09,1.27,8.14v1.69h-30.87v-4.04h28.3l-2.04,1.41c0-2.77-.5-5.21-1.49-7.35-1-2.13-2.4-3.8-4.2-5.01-1.81-1.21-3.93-1.81-6.36-1.81s-4.61.62-6.45,1.85c-1.84,1.23-3.28,2.92-4.31,5.06-1.03,2.14-1.55,4.58-1.55,7.29v2c0,2.95.52,5.55,1.56,7.8,1.04,2.25,2.52,4,4.43,5.26,1.91,1.25,4.18,1.88,6.8,1.88,1.85,0,3.51-.31,4.97-.93,1.46-.62,2.69-1.47,3.69-2.55,1-1.08,1.73-2.3,2.2-3.66l4.54.63c-.56,2.04-1.56,3.87-2.99,5.48-1.43,1.62-3.2,2.9-5.31,3.83s-4.48,1.41-7.1,1.41Z"/>
</svg>